<svg xmlns="http://www.w3.org/2000/svg" width="227.262" height="52.593" viewBox="0 0 227.262 52.593">
  <g id="partiaf_logo_standar" transform="translate(-137.815 -62)">
    <path id="Trazado_3" data-name="Trazado 3" d="M26.3,0h0a26.3,26.3,0,0,1,0,52.593h0A26.3,26.3,0,0,1,26.3,0h0ZM17.26,27.249h4.559a3.5,3.5,0,0,1,3.494,3.494v4.993a1.7,1.7,0,0,1-1.7,1.7H17.921A2.746,2.746,0,0,1,15.183,34.7V29.327a2.084,2.084,0,0,1,2.077-2.077Zm17.127-14.2H30.039a2.766,2.766,0,0,1-2.758-2.758V7.253a1.944,1.944,0,0,1,1.938-1.938h2.193a4.575,4.575,0,0,1,4.562,4.562v1.585a1.59,1.59,0,0,1-1.586,1.586Zm6,1.023a3.02,3.02,0,0,1-2.074-2.859c0-.975-.058-2.24,1.468-1.623,1.59.643,3.728,2.865,3.3,3.847S41.245,14.353,40.385,14.07Zm4.682,11.274H42.306a2.7,2.7,0,0,1-2.69-2.69V18.462A1.97,1.97,0,0,1,41.58,16.5H42.5a4.934,4.934,0,0,1,4.919,4.919v1.578a2.356,2.356,0,0,1-2.349,2.349Zm-9.734,0H30.775a3.5,3.5,0,0,1-3.494-3.494V16.857a1.7,1.7,0,0,1,1.7-1.7h5.692A2.746,2.746,0,0,1,37.41,17.9v5.371a2.084,2.084,0,0,1-2.077,2.077Zm-.946,14.2H30.039a2.766,2.766,0,0,0-2.758,2.758v3.036a1.944,1.944,0,0,0,1.938,1.938h2.193a4.575,4.575,0,0,0,4.562-4.562V41.132a1.59,1.59,0,0,0-1.586-1.585Zm6-1.023a3.02,3.02,0,0,0-2.074,2.859c0,.975-.058,2.24,1.468,1.623,1.59-.643,3.728-2.865,3.3-3.847S41.245,38.241,40.385,38.524Zm4.682-11.274H42.306a2.7,2.7,0,0,0-2.69,2.69v4.192A1.97,1.97,0,0,0,41.58,36.1H42.5a4.934,4.934,0,0,0,4.919-4.919V29.6a2.356,2.356,0,0,0-2.349-2.349Zm-9.734,0H30.775a3.5,3.5,0,0,0-3.494,3.494v4.993a1.7,1.7,0,0,0,1.7,1.7h5.692A2.746,2.746,0,0,0,37.41,34.7V29.327a2.084,2.084,0,0,0-2.077-2.077Zm-17.127-14.2h4.348a2.766,2.766,0,0,0,2.758-2.758V7.253a1.944,1.944,0,0,0-1.938-1.938H21.182A4.575,4.575,0,0,0,16.62,9.876v1.585a1.59,1.59,0,0,0,1.586,1.586Zm-6,1.023a3.02,3.02,0,0,0,2.074-2.859c0-.975.058-2.24-1.468-1.623-1.59.643-3.728,2.865-3.3,3.847S11.348,14.353,12.208,14.07ZM7.527,25.344h2.761a2.7,2.7,0,0,0,2.69-2.69V18.462A1.97,1.97,0,0,0,11.013,16.5H10.1a4.934,4.934,0,0,0-4.919,4.919v1.578a2.356,2.356,0,0,0,2.349,2.349Zm9.734,0h4.559a3.5,3.5,0,0,0,3.494-3.494V16.857a1.7,1.7,0,0,0-1.7-1.7H17.921A2.746,2.746,0,0,0,15.183,17.9v5.371a2.084,2.084,0,0,0,2.077,2.077Zm.946,14.2h4.348a2.766,2.766,0,0,1,2.758,2.758v3.036a1.944,1.944,0,0,1-1.938,1.938H21.182a4.575,4.575,0,0,1-4.562-4.562V41.132a1.59,1.59,0,0,1,1.586-1.585Zm-6-1.023a3.02,3.02,0,0,1,2.074,2.859c0,.975.058,2.24-1.468,1.623-1.59-.643-3.728-2.865-3.3-3.847S11.348,38.241,12.208,38.524ZM7.527,27.249h2.761a2.7,2.7,0,0,1,2.69,2.69v4.192A1.97,1.97,0,0,1,11.013,36.1H10.1a4.934,4.934,0,0,1-4.919-4.919V29.6a2.356,2.356,0,0,1,2.349-2.349ZM26.3,2.665a23.631,23.631,0,1,0,16.71,6.921A23.559,23.559,0,0,0,26.3,2.665Z" transform="translate(137.815 62)" fill="#ebc74e"/>
    <text id="PARTIAF" transform="translate(200.077 98.131)" fill="#ebc74e" font-size="32" font-family="NasalizationRg-Regular, Nasalization" letter-spacing="0.125em"><tspan x="0" y="0">PARTIAF</tspan></text>
  </g>
</svg>
