<svg xmlns="http://www.w3.org/2000/svg" xmlns:xlink="http://www.w3.org/1999/xlink" width="43.317" height="39.583" viewBox="0 0 43.317 39.583">
  <defs>
    <filter id="Trazado_182" x="0" y="0.125" width="43.317" height="39.458" filterUnits="userSpaceOnUse">
      <feOffset dy="10" input="SourceAlpha"/>
      <feGaussianBlur stdDeviation="3" result="blur"/>
      <feFlood flood-opacity="0.161"/>
      <feComposite operator="in" in2="blur"/>
      <feComposite in="SourceGraphic"/>
    </filter>
    <filter id="Trazado_183" x="7.375" y="20.339" width="18.959" height="19" filterUnits="userSpaceOnUse">
      <feOffset dy="10" input="SourceAlpha"/>
      <feGaussianBlur stdDeviation="3" result="blur-2"/>
      <feFlood flood-opacity="0.161"/>
      <feComposite operator="in" in2="blur-2"/>
      <feComposite in="SourceGraphic"/>
    </filter>
    <filter id="Trazado_184" x="7.186" y="20.339" width="18.19" height="19.001" filterUnits="userSpaceOnUse">
      <feOffset dy="10" input="SourceAlpha"/>
      <feGaussianBlur stdDeviation="3" result="blur-3"/>
      <feFlood flood-opacity="0.161"/>
      <feComposite operator="in" in2="blur-3"/>
      <feComposite in="SourceGraphic"/>
    </filter>
    <filter id="Trazado_185" x="8.212" y="20.342" width="18.196" height="19.02" filterUnits="userSpaceOnUse">
      <feOffset dy="10" input="SourceAlpha"/>
      <feGaussianBlur stdDeviation="3" result="blur-4"/>
      <feFlood flood-opacity="0.161"/>
      <feComposite operator="in" in2="blur-4"/>
      <feComposite in="SourceGraphic"/>
    </filter>
    <filter id="Trazado_186" x="16.894" y="0" width="18.103" height="19.016" filterUnits="userSpaceOnUse">
      <feOffset dy="10" input="SourceAlpha"/>
      <feGaussianBlur stdDeviation="3" result="blur-5"/>
      <feFlood flood-opacity="0.161"/>
      <feComposite operator="in" in2="blur-5"/>
      <feComposite in="SourceGraphic"/>
    </filter>
  </defs>
  <g id="twitter_dark" transform="translate(9)">
    <g transform="matrix(1, 0, 0, 1, -9, 0)" filter="url(#Trazado_182)">
      <path id="Trazado_182-2" data-name="Trazado 182" d="M737.173,5144.65a11.151,11.151,0,0,1-2.629.715c.4-.068.94-.8,1.179-1.094a4.524,4.524,0,0,0,.8-1.523.1.1,0,0,0-.02-.13.161.161,0,0,0-.14.011,12.776,12.776,0,0,1-2.984,1.141.2.2,0,0,1-.207-.055,2.432,2.432,0,0,0-.262-.267,5.292,5.292,0,0,0-1.444-.884,5.037,5.037,0,0,0-2.215-.357,5.285,5.285,0,0,0-2.1.594,5.4,5.4,0,0,0-1.695,1.383,5.2,5.2,0,0,0-1.012,2.026,5.506,5.506,0,0,0-.054,2.142c.016.119.006.136-.1.119a15.92,15.92,0,0,1-10.24-5.212c-.119-.136-.185-.136-.283.011a5.192,5.192,0,0,0,.885,6.135c.2.191.407.38.63.554a5.2,5.2,0,0,1-1.976-.554c-.12-.076-.18-.032-.19.1a3.114,3.114,0,0,0,.033.586,5.25,5.25,0,0,0,3.236,4.186,2.988,2.988,0,0,0,.657.2,5.859,5.859,0,0,1-1.939.061c-.141-.028-.2.043-.141.178a5.453,5.453,0,0,0,4.072,3.411c.184.031.369.031.554.075-.011.017-.022.017-.033.033-.457.7-2.042,1.215-2.781,1.474a9.941,9.941,0,0,1-4.224.54c-.227-.033-.275-.03-.336,0s-.009.093.065.153c.288.189.581.359.88.521a13.894,13.894,0,0,0,2.823,1.129,15.036,15.036,0,0,0,14.6-3.413c2.992-2.973,4.04-7.071,4.04-11.176,0-.161.19-.25.3-.334a11.074,11.074,0,0,0,2.218-2.065c.131-.178.363-.333.363-.4v-.021C737.506,5144.583,737.274,5144.6,737.173,5144.65Z" transform="translate(-703.19 -5142.07)" fill="#333"/>
    </g>
    <g transform="matrix(1, 0, 0, 1, -9, 0)" filter="url(#Trazado_183)">
      <path id="Trazado_183-2" data-name="Trazado 183" d="M723.5,5173.187Z" transform="translate(-707.12 -5152.85)" fill="#333" fill-rule="evenodd"/>
    </g>
    <g transform="matrix(1, 0, 0, 1, -9, 0)" filter="url(#Trazado_184)">
      <path id="Trazado_184-2" data-name="Trazado 184" d="M723.395,5173.186c-.033,0-.41,0,0,0Z" transform="translate(-707.02 -5152.85)" fill="#333" fill-rule="evenodd"/>
    </g>
    <g transform="matrix(1, 0, 0, 1, -9, 0)" filter="url(#Trazado_185)">
      <path id="Trazado_185-2" data-name="Trazado 185" d="M724.778,5173.21c0-.043.44,0,0,0C724.778,5173.188,724.832,5173.21,724.778,5173.21Z" transform="translate(-707.57 -5152.85)" fill="#333" fill-rule="evenodd"/>
    </g>
    <g transform="matrix(1, 0, 0, 1, -9, 0)" filter="url(#Trazado_186)">
      <path id="Trazado_186-2" data-name="Trazado 186" d="M738.19,5142.007a.09.09,0,0,1-.1,0Z" transform="translate(-712.19 -5142.01)" fill="#333" fill-rule="evenodd"/>
    </g>
  </g>
</svg>
