<?xml version="1.0" encoding="UTF-8"?>
<!DOCTYPE svg PUBLIC "-//W3C//DTD SVG 1.1//EN" "http://www.w3.org/Graphics/SVG/1.1/DTD/svg11.dtd">
<!-- Creator: CorelDRAW 2021 (64-Bit) -->
<svg xmlns="http://www.w3.org/2000/svg" xml:space="preserve" width="63.4382mm" height="11.6782mm" version="1.1" style="shape-rendering:geometricPrecision; text-rendering:geometricPrecision; image-rendering:optimizeQuality; fill-rule:evenodd; clip-rule:evenodd"
viewBox="0 0 1296.9 238.74"
 xmlns:xlink="http://www.w3.org/1999/xlink"
 xmlns:xodm="http://www.corel.com/coreldraw/odm/2003">
 <defs>
  <style type="text/css">
   <![CDATA[
    .fil0 {fill:#EBC74E;fill-rule:nonzero}
   ]]>
  </style>
 </defs>
 <g id="Capa_x0020_1">
  <metadata id="CorelCorpID_0Corel-Layer"/>
  <g id="_2646532258016">
   <path class="fil0" d="M119.37 0l0 0c32.96,0 62.81,13.36 84.4,34.97 21.59,21.59 34.97,51.44 34.97,84.4 0,32.96 -13.36,62.81 -34.97,84.4 -21.59,21.59 -51.44,34.97 -84.4,34.97l0 0 0 0c-32.96,0 -62.81,-13.36 -84.4,-34.97 -21.59,-21.59 -34.97,-51.44 -34.97,-84.4 0,-32.96 13.36,-62.81 34.97,-84.4 21.59,-21.59 51.44,-34.97 84.4,-34.97l0 0zm0 12.11c-29.62,0 -56.45,12.01 -75.86,31.42 -19.41,19.41 -31.42,46.22 -31.42,75.86 0,29.62 12.01,56.45 31.42,75.86 19.41,19.41 46.22,31.42 75.86,31.42 29.62,0 56.45,-12.01 75.86,-31.42 19.41,-19.41 31.42,-46.22 31.42,-75.86 0,-29.62 -12.01,-56.45 -31.42,-75.86 -19.41,-19.41 -46.22,-31.42 -75.86,-31.42zm-41.02 111.59l20.7 0c8.73,0 15.86,7.13 15.86,15.86l0 22.68c0,4.25 -3.47,7.72 -7.72,7.72l-25.84 0c-6.83,0 -12.43,-5.6 -12.43,-12.43l0 -24.38c0,-5.18 4.25,-9.43 9.43,-9.43l0 -0.02zm77.74 -64.48l-19.73 0c-6.89,0 -12.52,-5.64 -12.52,-12.52l0 -13.78c0,-4.84 3.97,-8.81 8.81,-8.81l9.94 0c11.39,0 20.7,9.32 20.7,20.7l0 7.19c0,3.97 -3.24,7.19 -7.19,7.19l0 0.02zm27.23 4.65c-5.45,-1.8 -9.41,-6.94 -9.41,-12.98 0,-4.42 -0.27,-10.17 6.66,-7.36 7.21,2.92 16.93,13 14.95,17.46 -1.94,4.4 -8.31,4.17 -12.2,2.88zm21.25 51.18l-12.54 0c-6.72,0 -12.22,-5.5 -12.22,-12.22l0 -19.03c0,-4.9 4,-8.92 8.92,-8.92l4.16 0c12.28,0 22.33,10.06 22.33,22.33l0 7.17c0,5.86 -4.8,10.66 -10.66,10.66l0.02 -0zm-44.19 0l-20.7 0c-8.73,0 -15.86,-7.13 -15.86,-15.86l0 -22.68c0,-4.25 3.47,-7.72 7.72,-7.72l25.84 0c6.83,0 12.43,5.6 12.43,12.43l0 24.38c0,5.18 -4.25,9.43 -9.43,9.43l-0 0.02zm-4.29 64.48l-19.73 0c-6.89,0 -12.52,5.64 -12.52,12.52l0 13.78c0,4.84 3.97,8.81 8.81,8.81l9.94 0c11.39,0 20.7,-9.32 20.7,-20.7l0 -7.19c0,-3.97 -3.24,-7.19 -7.19,-7.19l0 -0.02zm27.23 -4.65c-5.45,1.78 -9.41,6.94 -9.41,12.98 0,4.42 -0.27,10.17 6.66,7.36 7.21,-2.92 16.93,-13 14.95,-17.46 -1.94,-4.4 -8.31,-4.17 -12.2,-2.88zm21.25 -51.18l-12.54 0c-6.72,0 -12.22,5.5 -12.22,12.22l0 19.03c0,4.91 4,8.92 8.92,8.92l4.16 0c12.28,0 22.33,-10.06 22.33,-22.33l0 -7.17c0,-5.86 -4.8,-10.66 -10.66,-10.66l0.02 0zm-44.19 0l-20.7 0c-8.73,0 -15.86,7.13 -15.86,15.86l0 22.68c0,4.25 3.47,7.72 7.72,7.72l25.84 0c6.83,0 12.43,-5.6 12.43,-12.43l0 -24.38c0,-5.18 -4.25,-9.43 -9.43,-9.43l-0 -0.02zm-77.74 -64.48l19.73 0c6.89,0 12.52,-5.64 12.52,-12.52l0 -13.78c0,-4.84 -3.97,-8.81 -8.81,-8.81l-9.96 0c-11.39,0 -20.7,9.32 -20.7,20.7l0 7.19c0,3.97 3.24,7.19 7.19,7.19l0.02 0.02zm-27.23 4.65c5.45,-1.8 9.41,-6.94 9.41,-12.98 0,-4.42 0.27,-10.17 -6.66,-7.36 -7.21,2.92 -16.93,13 -14.95,17.46 1.94,4.4 8.31,4.17 12.2,2.88zm-21.25 51.18l12.54 0c6.72,0 12.22,-5.5 12.22,-12.22l0 -19.03c0,-4.9 -4,-8.92 -8.92,-8.92l-4.16 0c-12.28,0 -22.33,10.06 -22.33,22.33l0 7.17c0,5.86 4.8,10.66 10.66,10.66l-0.02 -0zm44.19 0l20.7 0c8.73,0 15.86,-7.13 15.86,-15.86l0 -22.68c0,-4.25 -3.47,-7.72 -7.72,-7.72l-25.84 0c-6.83,0 -12.43,5.6 -12.43,12.43l0 24.38c0,5.18 4.25,9.43 9.43,9.43l0 0.02zm4.29 64.48l19.73 0c6.89,0 12.52,5.64 12.52,12.52l0 13.78c0,4.84 -3.97,8.81 -8.81,8.81l-9.96 0c-11.39,0 -20.7,-9.32 -20.7,-20.7l0 -7.19c0,-3.97 3.24,-7.19 7.19,-7.19l0.02 -0.02zm-27.23 -4.65c5.45,1.78 9.41,6.94 9.41,12.98 0,4.42 0.27,10.17 -6.66,7.36 -7.21,-2.92 -16.93,-13 -14.95,-17.46 1.94,-4.4 8.31,-4.17 12.2,-2.88zm-21.25 -51.18l12.54 0c6.72,0 12.22,5.5 12.22,12.22l0 19.03c0,4.91 -4,8.92 -8.92,8.92l-4.16 0c-12.28,0 -22.33,-10.06 -22.33,-22.33l0 -7.17c0,-5.86 4.8,-10.66 10.66,-10.66l-0.02 0z"/>
   <path class="fil0" d="M306.87 49.11l0 24.17 68.48 0c12.48,0 18.14,8.41 18.14,18.44 0,9.62 -5.27,19.05 -18.33,19.05l-47.4 0c-14.44,0 -20.68,6.36 -20.68,21.92l0 54.7 23.02 0 0 -50c0,-2.47 1.18,-3.49 3.32,-3.49l40.97 0c30.82,0 42.33,-22.54 42.33,-43.43 0,-22.13 -12.68,-41.39 -42.33,-41.39l-67.49 0 -0.02 0.02zm211.08 29.51c1.25,-3.34 3.51,-4.72 6.64,-4.72 3.13,0 5.26,1.44 6.43,4.72l39.11 108.8 25.56 0 -43.59 -120.47c-4.67,-12.9 -13.66,-17.84 -27.31,-17.84 -13.85,0 -22.85,4.91 -27.7,17.84l-45.31 120.47 25.37 0 40.82 -108.8 -0.02 0zm123.09 -29.51l0 24.17 72.18 0c12.68,0 18.35,8.41 18.35,18.24 0,9.83 -5.27,19.26 -18.35,19.26l-51.31 0c-14.44,0 -20.68,6.36 -20.68,21.92l0 54.7 23.02 0 0 -50c0,-2.47 1.18,-3.49 3.32,-3.49l34.33 0 30.04 53.49 25.56 0 -30.63 -55.31c20.09,-5.94 27.89,-24.38 27.89,-41.59 0,-22.13 -12.68,-41.39 -42.33,-41.39l-71.4 0 0.02 0zm150.21 0l0 24.17 38.43 0 0 114.14 23.21 0 0 -114.14 38.43 0 0 -24.17 -100.08 0 0.02 0zm147.1 0l0 138.31 23.02 0 0 -138.31 -23.02 0zm133.04 29.51c1.25,-3.34 3.51,-4.72 6.64,-4.72 3.13,0 5.26,1.44 6.43,4.72l39.11 108.8 25.56 0 -43.59 -120.47c-4.67,-12.9 -13.66,-17.84 -27.31,-17.84 -13.85,0 -22.85,4.91 -27.7,17.84l-45.31 120.47 25.37 0 40.82 -108.8 -0.02 0zm170.89 -29.51c-34.92,0 -48.58,20.08 -48.58,47.74l0 90.57 23.02 0 0 -54.7 79.39 0 0 -22.94 -79.39 0 0 -13.11c0,-12.9 6.24,-23.36 27.12,-23.36l53.07 0 0 -24.17 -54.63 0 -0 -0.02z"/>
  </g>
 </g>
</svg>
